<svg id="Layer_1" data-name="Layer 1" xmlns="http://www.w3.org/2000/svg" xmlns:xlink="http://www.w3.org/1999/xlink" viewBox="0 0 484.15 323.74"><defs><style>.cls-1{fill:url(#linear-gradient);}.cls-2{fill:#231f20;}.cls-3{fill:#f1f2f2;}.cls-4{fill:url(#linear-gradient-2);}.cls-5{fill:url(#linear-gradient-3);}.cls-6{fill:url(#linear-gradient-4);}</style><linearGradient id="linear-gradient" x1="370.49" y1="549.25" x2="370.81" y2="493.08" gradientUnits="userSpaceOnUse"><stop offset="0" stop-color="#fff"/><stop offset="1"/></linearGradient><linearGradient id="linear-gradient-2" x1="370" y1="628.98" x2="371.43" y2="385.33" gradientUnits="userSpaceOnUse"><stop offset="0" stop-color="#fff"/><stop offset="0.79"/></linearGradient><linearGradient id="linear-gradient-3" x1="370.59" y1="539.04" x2="370.89" y2="448.45" xlink:href="#linear-gradient"/><linearGradient id="linear-gradient-4" x1="370.42" y1="507.98" x2="371.18" y2="432.29" xlink:href="#linear-gradient"/></defs><path class="cls-1" d="M611.79,510.84a1.17,1.17,0,0,1-1.07-1.61h-.1l-.46,0a1.19,1.19,0,0,1-1.18-1.18,1,1,0,0,1,.34-.83,4.44,4.44,0,0,0-1-.11h-473a21.17,21.17,0,0,1-2.7,2,12.58,12.58,0,0,1-4,1.82,5.23,5.23,0,0,0-.06.57v5.91a4.42,4.42,0,0,0,4.42,4.42H608.35a4.41,4.41,0,0,0,4.41-4.42v-5.91a4.11,4.11,0,0,0-.14-1.06A1.08,1.08,0,0,1,611.79,510.84Z" transform="translate(-128.61 -198.13)"/><rect class="cls-2" x="62.37" width="359.42" height="243.89" rx="10.86"/><rect class="cls-3" x="77.89" y="15.48" width="328.38" height="215.91" rx="7.11"/><path class="cls-4" d="M599.08,514.92H142.3c-9.85,0-15.67-2.39-13.06-5.29l59.11-65.56c1.46-1.62,8.45-2.91,15.64-2.91h333.4c7.18,0,14.18,1.29,15.64,2.91l59.11,65.56C614.75,512.53,608.93,514.92,599.08,514.92Z" transform="translate(-128.61 -198.13)"/><path class="cls-5" d="M436.64,509.3H304.74c-3.19,0-4.87-.74-3.79-1.64l19.85-16.32c.54-.44,2.73-.8,4.91-.8h90c2.17,0,4.37.36,4.91.8l19.84,16.32C441.51,508.56,439.83,509.3,436.64,509.3Z" transform="translate(-128.61 -198.13)"/><path class="cls-6" d="M537.39,483H204c-8.06,0-13.6-1-12.4-2.29L218.05,453c.86-.91,7-1.63,13.72-1.63H509.61c6.72,0,12.86.72,13.72,1.63l26.46,27.68C551,481.94,545.44,483,537.39,483Z" transform="translate(-128.61 -198.13)"/></svg>